<svg width="19" height="10" fill="none" xmlns="http://www.w3.org/2000/svg"><path d="M16.296 7.213c.746-.636 1.119-1.45 1.119-2.446 0-.94-.318-1.727-.953-2.363-.664-.58-1.479-.87-2.446-.87-.802 0-1.493.249-2.073.746a3.902 3.902 0 00-.622.705 7.906 7.906 0 00-.58.995l-.87 1.865c.552 1.575 1.754 2.363 3.606 2.363 1.133 0 2.072-.332 2.819-.995zm-7.338-3.4C8.433 2.24 7.231 1.452 5.352 1.452c-1.133 0-2.073.332-2.82.995-.745.608-1.118 1.437-1.118 2.487 0 .967.317 1.741.953 2.322.69.608 1.506.912 2.446.912.829 0 1.52-.263 2.073-.788.414-.332.815-.884 1.202-1.658l.87-1.907zm7.96-2.445c.912.912 1.367 2.073 1.367 3.482 0 1.437-.442 2.598-1.326 3.482-.802.885-1.907 1.327-3.316 1.327-.968 0-1.824-.276-2.57-.83a4.085 4.085 0 01-1.576-2.196l-.083.083c-.856 1.962-2.21 2.943-4.062 2.943-1.327 0-2.474-.456-3.441-1.368C.999 7.379.543 6.218.543 4.809c0-1.382.442-2.543 1.327-3.482C2.699.442 3.804 0 5.186 0c.912 0 1.769.276 2.57.83a4.39 4.39 0 011.575 2.196l.083-.083C10.3.981 11.653 0 13.477 0c1.354 0 2.5.456 3.44 1.368z" fill="#fff"/></svg>